M48
; DRILL file {KiCad 9.0.2} date 2025-07-06T02:05:21+0800
; FORMAT={-:-/ absolute / metric / decimal}
; #@! TF.CreationDate,2025-07-06T02:05:21+08:00
; #@! TF.GenerationSoftware,Kicad,Pcbnew,9.0.2
; #@! TF.FileFunction,Plated,1,2,PTH
FMAT,2
METRIC
; #@! TA.AperFunction,Plated,PTH,ComponentDrill
T1C0.889
; #@! TA.AperFunction,Plated,PTH,ComponentDrill
T2C1.000
; #@! TA.AperFunction,Plated,PTH,ComponentDrill
T3C1.500
%
G90
G05
T1
X144.304Y-78.74
X144.304Y-81.28
X144.304Y-83.82
X144.304Y-86.36
X144.304Y-88.9
X144.304Y-91.44
X144.304Y-93.98
X159.544Y-78.74
X159.544Y-81.28
X159.544Y-83.82
X159.544Y-86.36
X159.544Y-88.9
X159.544Y-91.44
X159.544Y-93.98
T2
X171.344Y-92.75
X171.344Y-95.25
X171.344Y-97.75
X185.844Y-92.75
X185.844Y-97.75
T3
X113.03Y-119.739
X119.38Y-117.199
X132.77Y-119.58
X139.12Y-117.04
X151.661Y-129.422
X151.82Y-110.055
X158.011Y-126.882
X158.17Y-107.515
X170.87Y-119.58
X177.22Y-117.04
T3
G00X178.194Y-89.65
M15
G01X179.494Y-89.65
M16
G05
G00X178.194Y-100.85
M15
G01X179.494Y-100.85
M16
G05
M30
